<mxfile host="65bd71144e">
    <diagram id="11KYIz2wfZRPv0BPyxRQ" name="Page-1">
        <mxGraphModel dx="986" dy="614" grid="1" gridSize="10" guides="1" tooltips="1" connect="1" arrows="1" fold="1" page="1" pageScale="1" pageWidth="850" pageHeight="1100" math="0" shadow="0">
            <root>
                <mxCell id="0"/>
                <mxCell id="1" parent="0"/>
                <mxCell id="57" value="" style="group" parent="1" vertex="1" connectable="0">
                    <mxGeometry x="25" y="120" width="940" height="930" as="geometry"/>
                </mxCell>
                <mxCell id="21" value="StreamEveryThing WEB&lt;br&gt;" style="shape=rect;html=1;verticalAlign=top;fontStyle=1;whiteSpace=wrap;align=center;shadow=0;" parent="57" vertex="1">
                    <mxGeometry x="-60" y="-50" width="1000" height="960" as="geometry"/>
                </mxCell>
                <mxCell id="58" value="" style="shape=rect;html=1;verticalAlign=top;fontStyle=1;whiteSpace=wrap;align=center;shadow=0;" parent="57" vertex="1">
                    <mxGeometry x="230" y="-20" width="480" height="930" as="geometry"/>
                </mxCell>
                <mxCell id="4" value="Amministratore&amp;nbsp;" style="shape=umlActor;html=1;verticalLabelPosition=bottom;verticalAlign=top;align=center;shadow=0;" parent="57" vertex="1">
                    <mxGeometry x="822.9375000000001" y="207.3170731707317" width="32.0625" height="62.19512195121951" as="geometry"/>
                </mxCell>
                <mxCell id="3" value="Segretario" style="shape=umlActor;html=1;verticalLabelPosition=bottom;verticalAlign=top;align=center;" parent="57" vertex="1">
                    <mxGeometry x="822.9375000000001" y="445.7317073170732" width="32.0625" height="62.19512195121951" as="geometry"/>
                </mxCell>
                <mxCell id="14" value="AGGIUNTA" style="ellipse;whiteSpace=wrap;html=1;" parent="57" vertex="1">
                    <mxGeometry x="502.31250000000006" y="217.6829268292683" width="149.625" height="72.5609756097561" as="geometry"/>
                </mxCell>
                <mxCell id="15" value="RIMOZIONE" style="ellipse;whiteSpace=wrap;html=1;" parent="57" vertex="1">
                    <mxGeometry x="502.31250000000006" y="331.70731707317077" width="149.625" height="72.5609756097561" as="geometry"/>
                </mxCell>
                <mxCell id="48" value="" style="edgeStyle=none;html=1;endArrow=none;verticalAlign=bottom;entryX=0;entryY=0.3333333333333333;entryDx=0;entryDy=0;entryPerimeter=0;exitX=1;exitY=0;exitDx=0;exitDy=0;" parent="57" source="16" target="3" edge="1">
                    <mxGeometry width="160" relative="1" as="geometry">
                        <mxPoint x="299.25" y="621.9512195121952" as="sourcePoint"/>
                        <mxPoint x="470.25000000000006" y="621.9512195121952" as="targetPoint"/>
                    </mxGeometry>
                </mxCell>
                <mxCell id="49" value="" style="edgeStyle=none;html=1;endArrow=none;verticalAlign=bottom;entryX=0;entryY=0.3333333333333333;entryDx=0;entryDy=0;entryPerimeter=0;exitX=1;exitY=0.5;exitDx=0;exitDy=0;" parent="57" source="14" target="4" edge="1">
                    <mxGeometry width="160" relative="1" as="geometry">
                        <mxPoint x="245.81250000000003" y="456.0975609756098" as="sourcePoint"/>
                        <mxPoint x="416.81250000000006" y="456.0975609756098" as="targetPoint"/>
                    </mxGeometry>
                </mxCell>
                <mxCell id="2" value="Utente" style="shape=umlActor;html=1;verticalLabelPosition=bottom;verticalAlign=top;align=center;container=0;" parent="57" vertex="1">
                    <mxGeometry y="248.78048780487805" width="32.0625" height="62.19512195121951" as="geometry"/>
                </mxCell>
                <mxCell id="6" value="RICERCA" style="ellipse;whiteSpace=wrap;html=1;container=0;" parent="57" vertex="1">
                    <mxGeometry x="277.875" y="114.02439024390245" width="149.625" height="72.5609756097561" as="geometry"/>
                </mxCell>
                <mxCell id="7" value="REGISTRAZIONE" style="ellipse;whiteSpace=wrap;html=1;container=0;" parent="57" vertex="1">
                    <mxGeometry x="277.875" y="217.6829268292683" width="149.625" height="72.5609756097561" as="geometry"/>
                </mxCell>
                <mxCell id="8" value="SFOGLIATURA" style="ellipse;whiteSpace=wrap;html=1;container=0;" parent="57" vertex="1">
                    <mxGeometry x="277.875" y="31.097560975609756" width="149.625" height="72.5609756097561" as="geometry"/>
                </mxCell>
                <mxCell id="9" value="LOGIN" style="ellipse;whiteSpace=wrap;html=1;container=0;" parent="57" vertex="1">
                    <mxGeometry x="277.875" y="383.5365853658537" width="149.625" height="72.5609756097561" as="geometry"/>
                </mxCell>
                <mxCell id="13" value="DOWNLOAD" style="ellipse;whiteSpace=wrap;html=1;container=0;" parent="57" vertex="1">
                    <mxGeometry x="277.875" y="663.4146341463415" width="149.625" height="72.5609756097561" as="geometry"/>
                </mxCell>
                <mxCell id="16" value="PAGAMENTO" style="ellipse;whiteSpace=wrap;html=1;container=0;" parent="57" vertex="1">
                    <mxGeometry x="277.875" y="756.7073170731708" width="149.625" height="72.5609756097561" as="geometry"/>
                </mxCell>
                <mxCell id="32" value="Utente Premium" style="shape=umlActor;html=1;verticalLabelPosition=bottom;verticalAlign=top;align=center;container=0;" parent="57" vertex="1">
                    <mxGeometry y="518.2926829268292" width="32.0625" height="62.19512195121951" as="geometry"/>
                </mxCell>
                <mxCell id="11" value="VISUALIZZAZIONE&amp;nbsp;&lt;br&gt;BASE" style="ellipse;whiteSpace=wrap;html=1;container=0;" parent="57" vertex="1">
                    <mxGeometry x="277.875" y="476.82926829268297" width="149.625" height="72.5609756097561" as="geometry"/>
                </mxCell>
                <mxCell id="12" value="VISUALIZZAZIONE&lt;br&gt;PREMIUM" style="ellipse;whiteSpace=wrap;html=1;container=0;" parent="57" vertex="1">
                    <mxGeometry x="277.875" y="570.1219512195122" width="149.625" height="72.5609756097561" as="geometry"/>
                </mxCell>
                <mxCell id="33" value="" style="edgeStyle=none;html=1;endArrow=block;endFill=0;endSize=12;verticalAlign=bottom;exitX=0.5;exitY=0;exitDx=0;exitDy=0;exitPerimeter=0;" parent="57" source="34" target="2" edge="1">
                    <mxGeometry width="160" relative="1" as="geometry">
                        <mxPoint x="138.9375" y="435.3658536585366" as="sourcePoint"/>
                        <mxPoint x="224.43750000000003" y="362.8048780487805" as="targetPoint"/>
                    </mxGeometry>
                </mxCell>
                <mxCell id="34" value="Utente Registrato" style="shape=umlActor;html=1;verticalLabelPosition=bottom;verticalAlign=top;align=center;container=0;" parent="57" vertex="1">
                    <mxGeometry y="393.9024390243903" width="32.0625" height="62.19512195121951" as="geometry"/>
                </mxCell>
                <mxCell id="35" value="" style="edgeStyle=none;html=1;endArrow=block;endFill=0;endSize=12;verticalAlign=bottom;exitX=0.5;exitY=0;exitDx=0;exitDy=0;exitPerimeter=0;" parent="57" edge="1">
                    <mxGeometry width="160" relative="1" as="geometry">
                        <mxPoint x="15.625124999999763" y="518.292682926829" as="sourcePoint"/>
                        <mxPoint x="16.03125" y="445.7317073170732" as="targetPoint"/>
                    </mxGeometry>
                </mxCell>
                <mxCell id="36" value="" style="edgeStyle=none;html=1;endArrow=none;verticalAlign=bottom;entryX=0;entryY=0.5;entryDx=0;entryDy=0;exitX=1;exitY=0.3333333333333333;exitDx=0;exitDy=0;exitPerimeter=0;" parent="57" source="2" target="8" edge="1">
                    <mxGeometry width="160" relative="1" as="geometry">
                        <mxPoint x="64.125" y="300.609756097561" as="sourcePoint"/>
                        <mxPoint x="235.12500000000003" y="300.609756097561" as="targetPoint"/>
                        <Array as="points"/>
                    </mxGeometry>
                </mxCell>
                <mxCell id="37" value="" style="edgeStyle=none;html=1;endArrow=none;verticalAlign=bottom;exitX=1;exitY=0.3333333333333333;exitDx=0;exitDy=0;exitPerimeter=0;entryX=0;entryY=0.5;entryDx=0;entryDy=0;" parent="57" source="2" target="6" edge="1">
                    <mxGeometry width="160" relative="1" as="geometry">
                        <mxPoint x="21.375" y="196.95121951219514" as="sourcePoint"/>
                        <mxPoint x="256.5" y="207.3170731707317" as="targetPoint"/>
                        <Array as="points"/>
                    </mxGeometry>
                </mxCell>
                <mxCell id="38" value="" style="edgeStyle=none;html=1;endArrow=none;verticalAlign=bottom;exitX=1;exitY=0.3333333333333333;exitDx=0;exitDy=0;exitPerimeter=0;entryX=0;entryY=0;entryDx=0;entryDy=0;" parent="57" source="2" target="7" edge="1">
                    <mxGeometry width="160" relative="1" as="geometry">
                        <mxPoint x="32.0625" y="124.39024390243902" as="sourcePoint"/>
                        <mxPoint x="277.87499999999517" y="222.8658536585366" as="targetPoint"/>
                        <Array as="points"/>
                    </mxGeometry>
                </mxCell>
                <mxCell id="39" value="" style="edgeStyle=none;html=1;endArrow=none;verticalAlign=bottom;exitX=1;exitY=0.3333333333333333;exitDx=0;exitDy=0;exitPerimeter=0;entryX=0;entryY=0.5;entryDx=0;entryDy=0;" parent="57" source="34" target="9" edge="1">
                    <mxGeometry width="160" relative="1" as="geometry">
                        <mxPoint x="10.153125000000001" y="404.26829268292687" as="sourcePoint"/>
                        <mxPoint x="277.8776989324813" y="425.2604551947563" as="targetPoint"/>
                        <Array as="points"/>
                    </mxGeometry>
                </mxCell>
                <mxCell id="40" value="" style="edgeStyle=none;html=1;endArrow=none;verticalAlign=bottom;exitX=1;exitY=0.3333333333333333;exitDx=0;exitDy=0;exitPerimeter=0;entryX=0;entryY=0;entryDx=0;entryDy=0;" parent="57" source="34" target="11" edge="1">
                    <mxGeometry width="160" relative="1" as="geometry">
                        <mxPoint x="42.75" y="425" as="sourcePoint"/>
                        <mxPoint x="288.5625" y="430.1829268292683" as="targetPoint"/>
                        <Array as="points"/>
                    </mxGeometry>
                </mxCell>
                <mxCell id="41" value="" style="edgeStyle=none;html=1;endArrow=none;verticalAlign=bottom;exitX=1;exitY=0.3333333333333333;exitDx=0;exitDy=0;exitPerimeter=0;entryX=0;entryY=0.5;entryDx=0;entryDy=0;" parent="57" target="12" edge="1">
                    <mxGeometry width="160" relative="1" as="geometry">
                        <mxPoint x="32.0625" y="539.0243902439024" as="sourcePoint"/>
                        <mxPoint x="299.78707393248123" y="611.8458210484148" as="targetPoint"/>
                        <Array as="points"/>
                    </mxGeometry>
                </mxCell>
                <mxCell id="42" value="" style="edgeStyle=none;html=1;endArrow=none;verticalAlign=bottom;entryX=0;entryY=0.5;entryDx=0;entryDy=0;" parent="57" target="13" edge="1">
                    <mxGeometry width="160" relative="1" as="geometry">
                        <mxPoint x="32.0625" y="539.0243902439024" as="sourcePoint"/>
                        <mxPoint x="288.5625" y="616.7682926829268" as="targetPoint"/>
                        <Array as="points"/>
                    </mxGeometry>
                </mxCell>
                <mxCell id="43" value="" style="edgeStyle=none;html=1;endArrow=none;verticalAlign=bottom;exitX=1;exitY=0.3333333333333333;exitDx=0;exitDy=0;exitPerimeter=0;entryX=0;entryY=0.5;entryDx=0;entryDy=0;" parent="57" source="32" edge="1">
                    <mxGeometry width="160" relative="1" as="geometry">
                        <mxPoint x="32.0625" y="725.609756097561" as="sourcePoint"/>
                        <mxPoint x="277.875" y="792.9878048780488" as="targetPoint"/>
                        <Array as="points"/>
                    </mxGeometry>
                </mxCell>
                <mxCell id="51" value="CANCELLAZIONE ACCOUNT" style="ellipse;whiteSpace=wrap;html=1;container=0;" parent="57" vertex="1">
                    <mxGeometry x="277.875" y="300.609756097561" width="149.625" height="72.5609756097561" as="geometry"/>
                </mxCell>
                <mxCell id="52" value="" style="edgeStyle=none;html=1;endArrow=none;verticalAlign=bottom;entryX=0;entryY=0.5;entryDx=0;entryDy=0;" parent="57" target="51" edge="1">
                    <mxGeometry width="160" relative="1" as="geometry">
                        <mxPoint x="32.0625" y="414.6341463414634" as="sourcePoint"/>
                        <mxPoint x="374.06250000000006" y="383.5365853658537" as="targetPoint"/>
                    </mxGeometry>
                </mxCell>
                <mxCell id="53" value="&amp;lt;&amp;lt;include&amp;gt;&amp;gt;" style="edgeStyle=none;html=1;endArrow=open;verticalAlign=bottom;dashed=1;labelBackgroundColor=none;entryX=1;entryY=0.5;entryDx=0;entryDy=0;" parent="57" target="12" edge="1">
                    <mxGeometry width="160" relative="1" as="geometry">
                        <mxPoint x="427.50000000000006" y="512.5914634146342" as="sourcePoint"/>
                        <mxPoint x="598.5" y="512.5914634146342" as="targetPoint"/>
                    </mxGeometry>
                </mxCell>
                <mxCell id="54" value="" style="edgeStyle=none;html=1;endArrow=none;verticalAlign=bottom;entryX=0;entryY=1;entryDx=0;entryDy=0;" parent="57" target="14" edge="1">
                    <mxGeometry width="160" relative="1" as="geometry">
                        <mxPoint x="406.12500000000006" y="487.1951219512195" as="sourcePoint"/>
                        <mxPoint x="577.125" y="487.1951219512195" as="targetPoint"/>
                    </mxGeometry>
                </mxCell>
                <mxCell id="55" value="" style="edgeStyle=none;html=1;endArrow=none;verticalAlign=bottom;entryX=0;entryY=1;entryDx=0;entryDy=0;exitX=1;exitY=0.5;exitDx=0;exitDy=0;" parent="57" source="11" target="15" edge="1">
                    <mxGeometry width="160" relative="1" as="geometry">
                        <mxPoint x="416.81250000000006" y="497.5609756097561" as="sourcePoint"/>
                        <mxPoint x="534.375" y="404.26829268292687" as="targetPoint"/>
                    </mxGeometry>
                </mxCell>
            </root>
        </mxGraphModel>
    </diagram>
</mxfile>